<?xml version="1.0" encoding="UTF-8"?>
<svg version="1.1" xmlns="http://www.w3.org/2000/svg" width="500" height="500">
<path d="M0 0 C1.93559313 -0.13504138 3.873872 -0.23201129 5.8125 -0.3125 C6.89144531 -0.37050781 7.97039062 -0.42851562 9.08203125 -0.48828125 C10.04496094 -0.32714844 11.00789062 -0.16601562 12 0 C14.28979172 3.30616379 15.97680254 6.89232535 17.69921875 10.51953125 C18.13838623 11.44096924 18.57755371 12.36240723 19.0300293 13.31176758 C19.57699463 14.46700928 20.12395996 15.62225098 20.6875 16.8125 C22.440625 20.504375 24.19375 24.19625 26 28 C26.33 18.76 26.66 9.52 27 0 C30.3 0 33.6 0 37 0 C38.69196504 3.38393008 38.11986549 7.22477791 38.09765625 10.9453125 C38.0962413 11.8303244 38.09482635 12.7153363 38.09336853 13.62716675 C38.0877614 16.45981191 38.07520771 19.29237864 38.0625 22.125 C38.05748592 24.04296761 38.05292285 25.96093646 38.04882812 27.87890625 C38.03778966 32.58596782 38.02052025 37.2929706 38 42 C38.44915771 40.79875488 38.89831543 39.59750977 39.36108398 38.35986328 C41.02420264 33.91283413 42.68876086 29.466345 44.35375977 25.02001953 C45.07485754 23.09373493 45.79556222 21.16730313 46.51586914 19.24072266 C47.54991565 16.47519978 48.58536405 13.71020537 49.62109375 10.9453125 C49.94403915 10.0806839 50.26698456 9.2160553 50.59971619 8.32522583 C50.89995193 7.52454681 51.20018768 6.7238678 51.50952148 5.89892578 C51.77377426 5.1927713 52.03802704 4.48661682 52.31028748 3.75906372 C53 2 53 2 54 0 C57.96 0 61.92 0 66 0 C70.60933276 11.41300213 75.12926191 22.85270734 79.47265625 34.36987305 C79.78976562 35.20945557 80.106875 36.04903809 80.43359375 36.9140625 C80.71259521 37.6560791 80.99159668 38.3980957 81.27905273 39.16259766 C81.98900814 41.05269379 81.98900814 41.05269379 83 43 C83.33 28.81 83.66 14.62 84 0 C86.97 0 89.94 0 93 0 C94 1 94 1 94.11352539 4.32641602 C94.11336629 5.80225556 94.10767314 7.27810069 94.09765625 8.75390625 C94.0962413 9.52935287 94.09482635 10.3047995 94.09336853 11.10374451 C94.08775345 13.59003494 94.07519846 16.0762366 94.0625 18.5625 C94.05748694 20.24413933 94.0529237 21.92578006 94.04882812 23.60742188 C94.03862832 27.73834329 94.01905605 31.86907182 94 36 C100.6 36 107.2 36 114 36 C114 38.97 114 41.94 114 45 C109.91170564 46.02207359 106.2296029 46.14429148 102.05859375 46.1328125 C100.91246361 46.13424759 100.91246361 46.13424759 99.74317932 46.13571167 C98.13192665 46.1363907 96.52067121 46.13455573 94.90942383 46.13037109 C92.44280874 46.12501154 89.97637512 46.13032921 87.50976562 46.13671875 C85.94270793 46.13605806 84.37565035 46.1347771 82.80859375 46.1328125 C82.07104355 46.13483673 81.33349335 46.13686096 80.57359314 46.13894653 C77.44440529 46.12460119 74.9916815 45.99722717 72 45 C71.05078125 42.93359375 71.05078125 42.93359375 70.3125 40.4375 C70.06113281 39.61121094 69.80976563 38.78492188 69.55078125 37.93359375 C69.36902344 37.29550781 69.18726563 36.65742188 69 36 C65.16275828 35.09586327 61.62497726 34.89423102 57.6875 34.9375 C56.61886719 34.94652344 55.55023438 34.95554687 54.44921875 34.96484375 C53.64097656 34.97644531 52.83273437 34.98804688 52 35 C51.76925781 35.71027344 51.53851563 36.42054688 51.30078125 37.15234375 C50.97464844 38.07144531 50.64851563 38.99054688 50.3125 39.9375 C49.99925781 40.85402344 49.68601562 41.77054687 49.36328125 42.71484375 C48 45 48 45 45.890625 45.796875 C42.06745919 46.06552989 38.27015701 46.26315248 34.4375 46.3125 C33.68275391 46.34150391 32.92800781 46.37050781 32.15039062 46.40039062 C26.57434649 46.46425721 26.57434649 46.46425721 23.92895508 44.32592773 C21.81245304 41.77385649 20.55471745 39.38436762 19.203125 36.359375 C18.76645508 35.39483398 18.32978516 34.43029297 17.87988281 33.43652344 C17.34202148 32.2199707 16.80416016 31.00341797 16.25 29.75 C14.5175 25.8725 12.785 21.995 11 18 C10.67 26.58 10.34 35.16 10 44 C5.64467851 46.17766075 4.53374042 46.03039555 0 45 C-0.64678109 35.43687962 -1.10348051 25.89943206 -1.125 16.3125 C-1.12951172 15.4884668 -1.13402344 14.66443359 -1.13867188 13.81542969 C-1.12712606 9.10666309 -0.78335536 4.64417818 0 0 Z M60 12 C57.46690767 16.64203897 55.53484401 20.65155992 55 26 C58.3 26 61.6 26 65 26 C64.55037804 24.03964825 64.09001752 22.08175691 63.625 20.125 C63.36976563 19.03445313 63.11453125 17.94390625 62.8515625 16.8203125 C62.21093785 13.89591545 62.21093785 13.89591545 60 12 Z " fill="#87358C" transform="translate(235,243)"/>
<path d="M0 0 C0.33 5.94 0.66 11.88 1 18 C2.7325 15.958125 4.465 13.91625 6.25 11.8125 C7.05679199 10.86274292 7.05679199 10.86274292 7.87988281 9.89379883 C8.31655273 9.37841553 8.75322266 8.86303223 9.203125 8.33203125 C9.68209229 7.7697583 10.16105957 7.20748535 10.65454102 6.62817383 C11.85920616 5.17037817 12.98810987 3.65074422 14.10546875 2.125 C16 0 16 0 17.97265625 -0.70703125 C19.00712891 -0.75923828 19.00712891 -0.75923828 20.0625 -0.8125 C20.83851563 -0.85632813 21.61453125 -0.90015625 22.4140625 -0.9453125 C23.26742187 -0.96335938 24.12078125 -0.98140625 25 -1 C25.97710937 -1.03867188 26.95421875 -1.07734375 27.9609375 -1.1171875 C33.5329801 -1.24881055 33.5329801 -1.24881055 36 -1 C38.85746471 1.85746471 38.26978143 3.87494651 38.30859375 7.87109375 C38.33375212 9.26367609 38.35915017 10.65625412 38.38476562 12.04882812 C38.41352383 14.24551291 38.43753948 16.44212284 38.45629883 18.63891602 C38.47794289 20.75836941 38.51737763 22.87694391 38.55859375 24.99609375 C38.57204834 26.26638428 38.58550293 27.5366748 38.59936523 28.84545898 C38.73419167 31.96540862 38.73419167 31.96540862 40.40869141 33.90136719 C43.33880608 35.92430613 46.51876242 35.97186879 50 36 C52.45437518 35.77340479 52.45437518 35.77340479 54 34 C56.31361029 26.91456849 56.42965332 19.90689494 56.625 12.5 C56.66367188 11.29601562 56.70234375 10.09203125 56.7421875 8.8515625 C56.83585016 5.90118881 56.92157524 2.95081144 57 0 C59.97 0 62.94 0 66 0 C68.33242992 11.45689575 68.6868968 26.86329112 65 38 C62.6875 41.0625 62.6875 41.0625 60 43 C58.948125 43.86625 58.948125 43.86625 57.875 44.75 C51.05011503 47.71734129 43.83894434 47.72178678 36.94140625 45.01953125 C32.63867385 42.75994744 29.75504521 39.47694168 28 35 C27.76969093 32.61649515 27.64480346 30.22200729 27.5859375 27.828125 C27.56657135 27.1457074 27.5472052 26.46328979 27.5272522 25.76019287 C27.46768902 23.59025392 27.42116554 21.42026123 27.375 19.25 C27.33679869 17.77471703 27.2977457 16.29945585 27.2578125 14.82421875 C27.16200765 11.21634582 27.07789084 7.60830917 27 4 C26.34 4 25.68 4 25 4 C23.49873909 5.63103592 22.07315614 7.33217645 20.6875 9.0625 C19.88828125 10.06023437 19.0890625 11.05796875 18.265625 12.0859375 C15.74264046 15.33101762 13.3315502 18.61549164 11 22 C13.83712472 27.068355 17.42283627 31.41511945 21.06054688 35.91601562 C23.38758185 38.82874546 25.5389412 41.53322733 27 45 C23.23312622 45.88632324 19.86053867 46.4327304 16 46 C13.65625 43.83984375 13.65625 43.83984375 11.5 40.9375 C10.73816406 39.93976563 9.97632813 38.94203125 9.19140625 37.9140625 C8.10666016 36.47160156 8.10666016 36.47160156 7 35 C5.82583892 33.59292762 4.64066184 32.19485615 3.4375 30.8125 C2.633125 29.884375 1.82875 28.95625 1 28 C0.67 33.61 0.34 39.22 0 45 C-5 46 -5 46 -10 45 C-10 30.15 -10 15.3 -10 0 C-3 -1 -3 -1 0 0 Z " fill="#87378B" transform="translate(165,243)"/>
<path d="M0 0 C1.32 0.66 2.64 1.32 4 2 C3.36564063 8.07852673 1.06502993 13.45271817 -1.1484375 19.09375 C-1.56163239 20.15863647 -1.97482727 21.22352295 -2.40054321 22.32067871 C-3.273735 24.56755201 -4.14972394 26.81334001 -5.02832031 29.05810547 C-6.36928887 32.48540327 -7.70097483 35.91619571 -9.03125 39.34765625 C-9.88226625 41.53406686 -10.73381119 43.72027178 -11.5859375 45.90625 C-11.9829184 46.92827515 -12.37989929 47.95030029 -12.78890991 49.0032959 C-16.88733916 59.45429595 -16.88733916 59.45429595 -19 63 C-20.485 63.495 -20.485 63.495 -22 64 C-22.66 63.67 -23.32 63.34 -24 63 C-23.42299972 57.35034162 -21.91268742 52.57971534 -19.83203125 47.3125 C-19.51473557 46.49233398 -19.19743988 45.67216797 -18.87052917 44.82714844 C-17.8581009 42.21534957 -16.83541877 39.60770548 -15.8125 37 C-15.1445194 35.28020524 -14.4771961 33.56015503 -13.81054688 31.83984375 C-12.19396254 27.67480095 -10.56347483 23.51539801 -8.92633057 19.35839844 C-8.0262011 17.0667069 -7.13428031 14.77196026 -6.24365234 12.4765625 C-5.70830278 11.10925947 -5.17267522 9.74206524 -4.63671875 8.375 C-4.17354248 7.18648437 -3.71036621 5.99796875 -3.2331543 4.7734375 C-2 2 -2 2 0 0 Z " fill="#17DE85" transform="translate(260,164)"/>
<path d="M0 0 C5.47608167 0.12398675 8.92884047 3.8791684 12.875 7.25 C14.24570704 8.40305223 15.61808879 9.55411674 16.9921875 10.703125 C17.65573242 11.25806641 18.31927734 11.81300781 19.00292969 12.38476562 C21.90771056 14.73415807 24.93203564 16.86924669 28 19 C27.71798878 22.33233669 27.36375358 23.66925491 24.84765625 25.95703125 C23.92855469 26.56933594 23.00945312 27.18164062 22.0625 27.8125 C17.25682344 31.10585702 12.74990783 34.5912145 8.2890625 38.3359375 C5.90775434 40.06705913 3.81386038 41.14360771 1 42 C0.34 41.67 -0.32 41.34 -1 41 C-0.80840578 37.17495825 -0.11504096 36.10545421 2.765625 33.46484375 C3.91696402 32.60861807 5.07890127 31.7664944 6.25 30.9375 C7.40129152 30.09278835 8.5523366 29.2477407 9.703125 28.40234375 C10.25806641 28.00128418 10.81300781 27.60022461 11.38476562 27.18701172 C13.6450616 25.52595382 15.82484816 23.77037734 18 22 C16.83902257 18.5170677 15.87275588 17.85702918 13 15.6875 C12.19691406 15.07519531 11.39382813 14.46289062 10.56640625 13.83203125 C7.3711037 11.55106185 4.05090047 9.51829805 0.65234375 7.5546875 C-1 6 -1 6 -1.30859375 3.3828125 C-1 1 -1 1 0 0 Z " fill="#21B87A" transform="translate(263,175)"/>
<path d="M0 0 C0.59167969 0.21011719 1.18335938 0.42023438 1.79296875 0.63671875 C2.05273438 2.91918945 2.05273438 2.91918945 1.79296875 5.63671875 C0.04882812 7.45776367 0.04882812 7.45776367 -2.36328125 9.1171875 C-3.64912109 10.02694336 -3.64912109 10.02694336 -4.9609375 10.95507812 C-5.86714844 11.57189453 -6.77335937 12.18871094 -7.70703125 12.82421875 C-9.49216259 14.06212989 -11.27363486 15.30534023 -13.05078125 16.5546875 C-13.84677734 17.09891357 -14.64277344 17.64313965 -15.46289062 18.20385742 C-16.03845703 18.67670166 -16.61402344 19.1495459 -17.20703125 19.63671875 C-17.20703125 20.29671875 -17.20703125 20.95671875 -17.20703125 21.63671875 C-15.19998122 23.34598687 -13.19174115 24.93860898 -11.08203125 26.51171875 C-10.51226562 26.94613281 -9.9425 27.38054687 -9.35546875 27.828125 C-5.72651235 30.57458519 -2.01649005 33.14725479 1.79296875 35.63671875 C1.46296875 37.28671875 1.13296875 38.93671875 0.79296875 40.63671875 C-3.4645746 40.63671875 -3.96818504 40.4322105 -7.10546875 37.96875 C-7.8325 37.40478516 -8.55953125 36.84082031 -9.30859375 36.25976562 C-10.05882812 35.66228516 -10.8090625 35.06480469 -11.58203125 34.44921875 C-12.32453125 33.87107422 -13.06703125 33.29292969 -13.83203125 32.69726562 C-18.023058 29.42071202 -22.13951887 26.06505061 -26.20703125 22.63671875 C-26.13284721 19.94136541 -25.72167179 18.18203446 -23.84716797 16.19580078 C-21.98860243 14.6328093 -20.08758423 13.15587093 -18.14453125 11.69921875 C-17.12105591 10.91188354 -17.12105591 10.91188354 -16.0769043 10.10864258 C-14.73008789 9.0746662 -13.37935466 8.0457681 -12.02441406 7.02246094 C-10.51807127 5.87388468 -9.0418615 4.68591258 -7.57421875 3.48828125 C-2.71524408 -0.44693398 -2.71524408 -0.44693398 0 0 Z " fill="#1E9971" transform="translate(236.20703125,175.36328125)"/>
<path d="M0 0 C2.33294775 -0.04241723 4.66702567 -0.04092937 7 0 C8 1 8 1 8.11352539 4.05102539 C8.11336634 5.39991271 8.10767612 6.74880614 8.09765625 8.09765625 C8.0962413 8.80651474 8.09482635 9.51537323 8.09336853 10.24571228 C8.08775443 12.51801712 8.07519963 14.79022475 8.0625 17.0625 C8.05748681 18.59960796 8.05292359 20.13671745 8.04882812 21.67382812 C8.03778042 25.44925642 8.02050641 29.22461171 8 33 C7.21625 33.144375 6.4325 33.28875 5.625 33.4375 C3.03578982 33.87798925 3.03578982 33.87798925 1 35 C-0.51708428 24.44191344 -0.51708428 24.44191344 2 20 C1.67 20 1.34 20 1 20 C0.6603981 18.12612523 0.32861309 16.25083303 0 14.375 C-0.2784375 12.80878906 -0.2784375 12.80878906 -0.5625 11.2109375 C-1.64244742 3.28489484 -1.64244742 3.28489484 0 0 Z " fill="#8A348F" transform="translate(194,244)"/>
<path d="M0 0 C2.85746471 2.85746471 2.26978143 4.87494651 2.30859375 8.87109375 C2.33375212 10.26367609 2.35915017 11.65625412 2.38476562 13.04882812 C2.41352383 15.24551291 2.43753948 17.44212284 2.45629883 19.63891602 C2.47794289 21.75836941 2.51737763 23.87694391 2.55859375 25.99609375 C2.57204834 27.26638428 2.58550293 28.5366748 2.59936523 29.84545898 C2.7322859 32.94655202 2.7322859 32.94655202 4.34008789 34.81274414 C5.87073971 35.90754629 7.434178 36.95611867 9 38 C2.25 37.125 2.25 37.125 0 36 C-0.66 37.98 -1.32 39.96 -2 42 C-0.515 42.495 -0.515 42.495 1 43 C1 43.66 1 44.32 1 45 C-2.4840164 44.1289959 -3.87743493 43.15500877 -6.125 40.3125 C-9.24666715 34.57049305 -8.67930807 27.92798674 -8.75 21.5625 C-8.77964844 20.25861328 -8.80929688 18.95472656 -8.83984375 17.61132812 C-8.91025776 14.40749083 -8.96309869 11.20436945 -9 8 C-6.49006286 10.50993714 -6.48040045 12.03273663 -5.9375 15.5 C-5.3714257 19.37920565 -5.3714257 19.37920565 -4 23 C-4.31710938 23.60328125 -4.63421875 24.2065625 -4.9609375 24.828125 C-6.22139717 27.46277002 -6.04552714 28.89041545 -5.625 31.75 C-5.51414063 32.54921875 -5.40328125 33.3484375 -5.2890625 34.171875 C-5.14597656 35.07679688 -5.14597656 35.07679688 -5 36 C-4.38125 35.649375 -3.7625 35.29875 -3.125 34.9375 C-2.42375 34.628125 -1.7225 34.31875 -1 34 C-0.34 34.33 0.32 34.66 1 35 C0.67 24.44 0.34 13.88 0 3 C-2.31 2.67 -4.62 2.34 -7 2 C-7.33 2.99 -7.66 3.98 -8 5 C-8.99 5 -9.98 5 -11 5 C-13.18777466 6.9375006 -13.18777466 6.9375006 -15 9 C-14.67 7.02 -14.34 5.04 -14 3 C-15.32 3 -16.64 3 -18 3 C-18.33 3.66 -18.66 4.32 -19 5 C-21.0625 5.625 -21.0625 5.625 -23 6 C-21.125 2.125 -21.125 2.125 -20 1 C-13.47684099 -0.33428253 -6.62607071 -0.54676667 0 0 Z " fill="#7E3D7F" transform="translate(201,242)"/>
<path d="M0 0 C3.96 0 7.92 0 12 0 C13.36355983 3.28805894 14.71614174 6.57990616 16.0625 9.875 C16.64741211 11.28072266 16.64741211 11.28072266 17.24414062 12.71484375 C17.60830078 13.61074219 17.97246094 14.50664062 18.34765625 15.4296875 C18.68804932 16.25710449 19.02844238 17.08452148 19.37915039 17.93701172 C20 20 20 20 19 22 C16.70620251 18.55930376 16 17.27709699 16 13 C15.01 12.67 14.02 12.34 13 12 C13 11.01 13 10.02 13 9 C12.34 9 11.68 9 11 9 C10.67 8.67 10.34 8.34 10 8 C10 10.31 10 12.62 10 15 C10.66 15.33 11.32 15.66 12 16 C11.34 16 10.68 16 10 16 C10 16.66 10 17.32 10 18 C10.66 18 11.32 18 12 18 C12.12375 18.78375 12.2475 19.5675 12.375 20.375 C12.79117993 23.14057822 12.79117993 23.14057822 15 25 C13 27 13 27 10.1796875 27.1953125 C9.08914063 27.17210937 7.99859375 27.14890625 6.875 27.125 C5.77929688 27.10695313 4.68359375 27.08890625 3.5546875 27.0703125 C2.71164062 27.04710937 1.86859375 27.02390625 1 27 C-3 20.25 -3 20.25 -3 18 C-2.38125 17.731875 -1.7625 17.46375 -1.125 17.1875 C1.2995233 16.04443152 1.2995233 16.04443152 3 13 C3.54494178 10.92518463 3.94226841 8.84972282 4.33984375 6.7421875 C4.55769531 6.16726562 4.77554687 5.59234375 5 5 C5.99 4.67 6.98 4.34 8 4 C8 3.34 8 2.68 8 2 C5.36 2 2.72 2 0 2 C0 1.34 0 0.68 0 0 Z M6 12 C3.46690767 16.64203897 1.53484401 20.65155992 1 26 C4.3 26 7.6 26 11 26 C10.55037804 24.03964825 10.09001752 22.08175691 9.625 20.125 C9.36976563 19.03445313 9.11453125 17.94390625 8.8515625 16.8203125 C8.21093785 13.89591545 8.21093785 13.89591545 6 12 Z " fill="#823A85" transform="translate(289,243)"/>
<path d="M0 0 C2.97 0 5.94 0 9 0 C10 1 10 1 10.11352539 4.32641602 C10.11336629 5.80225556 10.10767314 7.27810069 10.09765625 8.75390625 C10.0962413 9.52935287 10.09482635 10.3047995 10.09336853 11.10374451 C10.08775345 13.59003494 10.07519846 16.0762366 10.0625 18.5625 C10.05748694 20.24413933 10.0529237 21.92578006 10.04882812 23.60742188 C10.03862832 27.73834329 10.01905605 31.86907182 10 36 C16.6 36 23.2 36 30 36 C30 38.97 30 41.94 30 45 C28.68 45 27.36 45 26 45 C26.99 44.505 26.99 44.505 28 44 C27.67 42.02 27.34 40.04 27 38 C25.71222656 38.01160156 24.42445313 38.02320313 23.09765625 38.03515625 C21.41927228 38.0445327 19.74088674 38.05363305 18.0625 38.0625 C16.78729492 38.07506836 16.78729492 38.07506836 15.48632812 38.08789062 C14.67744141 38.09111328 13.86855469 38.09433594 13.03515625 38.09765625 C12.2862915 38.10289307 11.53742676 38.10812988 10.76586914 38.11352539 C9 38 9 38 8 37 C7.91144839 34.3337397 7.88475327 31.69352886 7.90234375 29.02734375 C7.9037587 28.22970108 7.90517365 27.43205841 7.90663147 26.61024475 C7.91224684 24.05262565 7.92480188 21.49509282 7.9375 18.9375 C7.94251302 17.20768355 7.94707627 15.47786574 7.95117188 13.74804688 C7.96222125 9.49866447 7.97949614 5.24934688 8 1 C5.69 1 3.38 1 1 1 C1 14.2 1 27.4 1 41 C0.67 41 0.34 41 0 41 C0 27.47 0 13.94 0 0 Z " fill="#733A74" transform="translate(319,243)"/>
<path d="M0 0 C5.47608167 0.12398675 8.92884047 3.8791684 12.875 7.25 C14.24570704 8.40305223 15.61808879 9.55411674 16.9921875 10.703125 C17.65573242 11.25806641 18.31927734 11.81300781 19.00292969 12.38476562 C21.90771056 14.73415807 24.93203564 16.86924669 28 19 C27.9375 21.1875 27.9375 21.1875 27 24 C24.8282781 25.93157957 22.47398953 27.48201687 20 29 C19.34 28.67 18.68 28.34 18 28 C19.98 26.02 21.96 24.04 24 22 C22.57190534 18.58655089 20.89894609 16.85005761 17.97265625 14.6171875 C17.18052734 14.00746094 16.38839844 13.39773437 15.57226562 12.76953125 C14.32993164 11.83173828 14.32993164 11.83173828 13.0625 10.875 C12.23814453 10.24207031 11.41378906 9.60914063 10.56445312 8.95703125 C7.4212905 6.55178414 4.29407675 4.19605117 1 2 C5.38018071 6.59793348 10.20153384 10.3472827 15.26757812 14.15820312 C16.87964421 15.3949734 18.44446207 16.69284296 20 18 C20 18.66 20 19.32 20 20 C20.66 20 21.32 20 22 20 C20.48328036 24.55015893 16.83108947 26.50057264 13 29 C12.34 28.67 11.68 28.34 11 28 C13.31 26.02 15.62 24.04 18 22 C16.83902257 18.5170677 15.87275588 17.85702918 13 15.6875 C12.19691406 15.07519531 11.39382813 14.46289062 10.56640625 13.83203125 C7.3711037 11.55106185 4.05090047 9.51829805 0.65234375 7.5546875 C-1 6 -1 6 -1.30859375 3.3828125 C-1 1 -1 1 0 0 Z " fill="#1DA572" transform="translate(263,175)"/>
<path d="M0 0 C2.82321865 2.82321865 3.77294537 6.25978203 5.125 9.9375 C5.40214844 10.66646484 5.67929687 11.39542969 5.96484375 12.14648438 C7.10821193 15.21893433 8 17.69539373 8 21 C13.61 21 19.22 21 25 21 C25.33 21.66 25.66 22.32 26 23 C21.89584811 23.02898097 17.79172247 23.0467922 13.6875 23.0625 C12.52025391 23.07087891 11.35300781 23.07925781 10.15039062 23.08789062 C8.47299805 23.09272461 8.47299805 23.09272461 6.76171875 23.09765625 C5.2142395 23.10551147 5.2142395 23.10551147 3.63549805 23.11352539 C1 23 1 23 -2 22 C-3.06899617 16.0883224 -3.31056375 13.16447944 0 8 C0.26600555 5.27855857 0.13949896 2.74347949 0 0 Z " fill="#86378B" transform="translate(309,266)"/>
<path d="M0 0 C-1.54525108 4.33276284 -4.88269814 6.54179501 -8.4375 9.1875 C-9.02337891 9.63802734 -9.60925781 10.08855469 -10.21289062 10.55273438 C-12.78873274 12.50288953 -14.91455304 13.97151768 -18 15 C-18 17.64 -18 20.28 -18 23 C-17.26910156 23.25007813 -16.53820312 23.50015625 -15.78515625 23.7578125 C-12.76991033 25.10262064 -10.85786768 26.6440524 -8.4375 28.875 C-7.69371094 29.55304688 -6.94992188 30.23109375 -6.18359375 30.9296875 C-4.08559039 32.9188499 -2.03266814 34.94428574 0 37 C-3.14382257 36.40242813 -5.02998654 35.44021118 -7.49609375 33.41796875 C-8.13740234 32.89783203 -8.77871094 32.37769531 -9.43945312 31.84179688 C-10.09880859 31.29587891 -10.75816406 30.74996094 -11.4375 30.1875 C-12.42073242 29.38602539 -12.42073242 29.38602539 -13.42382812 28.56835938 C-14.69986911 27.52781642 -15.9738751 26.48477176 -17.24560547 25.43896484 C-19.48087738 23.60558151 -21.73788285 21.80010478 -24 20 C-22.63414389 15.48877241 -20.80113848 13.74423171 -16.9375 11.125 C-12.40434065 7.98757655 -8.06031337 4.71974754 -3.77734375 1.25 C-2 0 -2 0 0 0 Z " fill="#18E085" transform="translate(236,177)"/>
<path d="M0 0 C1.32 0.66 2.64 1.32 4 2 C3.35083537 8.00477279 1.14204997 13.400781 -1 19 C-1.99 19 -2.98 19 -4 19 C-4 19.99 -4 20.98 -4 22 C-4.66 22 -5.32 22 -6 22 C-6.103125 23.03125 -6.20625 24.0625 -6.3125 25.125 C-6.99127797 28.95083945 -8.11158795 31.63370025 -10 35 C-10.33 35 -10.66 35 -11 35 C-11.35096295 29.96444459 -10.26887874 26.78394452 -8.125 22.25 C-5.8245173 17.2309463 -4.30511875 12.52017613 -3.43359375 7.06640625 C-2.85662294 4.31669852 -1.65085883 2.25117114 0 0 Z " fill="#14D47A" transform="translate(260,164)"/>
<path d="M0 0 C1.134375 0.020625 2.26875 0.04125 3.4375 0.0625 C3.4375 1.3825 3.4375 2.7025 3.4375 4.0625 C2.4475 4.0625 1.4575 4.0625 0.4375 4.0625 C0.499375 4.7225 0.56125 5.3825 0.625 6.0625 C0.36932247 10.15334054 -1.01945044 13.26916984 -2.5625 17.0625 C-2.8925 16.4025 -3.2225 15.7425 -3.5625 15.0625 C-3.8925 15.7225 -4.2225 16.3825 -4.5625 17.0625 C-5.5525 17.0625 -6.5425 17.0625 -7.5625 17.0625 C-7.2325 18.3825 -6.9025 19.7025 -6.5625 21.0625 C-7.5525 20.0725 -8.5425 19.0825 -9.5625 18.0625 C-9.10988642 16.62318883 -8.65017021 15.18611001 -8.1875 13.75 C-7.93226563 12.94949219 -7.67703125 12.14898437 -7.4140625 11.32421875 C-6.5625 9.0625 -6.5625 9.0625 -4.5625 6.0625 C-4.5228287 4.39630554 -4.51865553 2.72858987 -4.5625 1.0625 C-3.5625 0.0625 -3.5625 0.0625 0 0 Z " fill="#8C3493" transform="translate(293.5625,243.9375)"/>
<path d="M0 0 C0.66 0 1.32 0 2 0 C-0.2877609 8.45990856 -3.37762862 16.58997608 -6.56079102 24.74365234 C-7.44464561 27.01839034 -8.30908583 29.29997072 -9.17382812 31.58203125 C-9.7384015 33.03431416 -10.30411528 34.48615437 -10.87109375 35.9375 C-11.12539658 36.6176416 -11.3796994 37.2977832 -11.64170837 37.99853516 C-12.76354012 40.81452354 -13.58453384 42.6982347 -16.07055664 44.50390625 C-18 45 -18 45 -20 44 C-20 42.35 -20 40.7 -20 39 C-19.67 40.32 -19.34 41.64 -19 43 C-18.01 43 -17.02 43 -16 43 C-15.86722656 42.37351563 -15.73445312 41.74703125 -15.59765625 41.1015625 C-15.42105469 40.28429687 -15.24445313 39.46703125 -15.0625 38.625 C-14.80146484 37.40683594 -14.80146484 37.40683594 -14.53515625 36.1640625 C-14 34 -14 34 -13 32 C-12.34 32 -11.68 32 -11 32 C-10.92523438 31.46375 -10.85046875 30.9275 -10.7734375 30.375 C-9.33857404 21.82208841 -6.1302923 14.04019685 -3 6 C-2.67 5.01 -2.34 4.02 -2 3 C-1.34 3 -0.68 3 0 3 C0 2.01 0 1.02 0 0 Z " fill="#25A579" transform="translate(256,183)"/>
<path d="M0 0 C3.85049266 1.68634715 7.02266397 4.18021609 10.3125 6.75 C10.88701904 7.19520996 11.46153809 7.64041992 12.0534668 8.09912109 C16.14116026 11.28402172 20.11629435 14.56788803 24 18 C21.93186859 22.32342404 19.67045334 26.82544376 15.1171875 28.828125 C13.43360552 29.3052535 11.71718687 29.66329669 10 30 C12.57693093 25.70511511 14.64080034 23.40903139 19 21 C19.66 20.01 20.32 19.02 21 18 C20.34 18 19.68 18 19 18 C17.8224157 16.83514634 16.64942205 15.66521451 15.50244141 14.47021484 C12.21438975 11.25269013 8.40330662 8.60321167 4.73242188 5.84179688 C3.12035579 4.6050266 1.55553793 3.30715704 0 2 C0 1.34 0 0.68 0 0 Z " fill="#18E083" transform="translate(264,177)"/>
<path d="M0 0 C0.66 0.33 1.32 0.66 2 1 C0.625 2.5 0.625 2.5 -1 4 C-1.66 4 -2.32 4 -3 4 C-3.33 5.65 -3.66 7.3 -4 9 C-1.48625263 11.09200195 1.03722583 13.17193298 3.5625 15.25 C4.26697266 15.83652344 4.97144531 16.42304688 5.69726562 17.02734375 C9.94797566 20.51410129 14.14230508 23.42114488 19 26 C19 26.33 19 26.66 19 27 C15.67876642 27.38161391 14.28551467 27.18946596 11.45703125 25.3125 C10.58433594 24.549375 9.71164063 23.78625 8.8125 23 C7.86375 22.18660156 6.915 21.37320313 5.9375 20.53515625 C4.968125 19.69855469 3.99875 18.86195313 3 18 C1.11123276 16.47039993 -0.78410582 14.94885987 -2.6875 13.4375 C-3.51636719 12.77621094 -4.34523437 12.11492187 -5.19921875 11.43359375 C-5.79347656 10.96050781 -6.38773438 10.48742187 -7 10 C-6.39496718 5.44310722 -6.39496718 5.44310722 -4.58984375 3.41796875 C-2.29492188 1.70898438 -2.29492188 1.70898438 0 0 Z " fill="#20AC74" transform="translate(217,188)"/>
<path d="M0 0 C2.97 0 5.94 0 9 0 C8.67 1.32 8.34 2.64 8 4 C8 3.01 8 2.02 8 1 C5.69 1 3.38 1 1 1 C1.02356567 2.20160767 1.02356567 2.20160767 1.04760742 3.42749023 C1.11041148 7.09742014 1.14913488 10.76723649 1.1875 14.4375 C1.21263672 15.69755859 1.23777344 16.95761719 1.26367188 18.25585938 C1.37877944 32.95125823 1.37877944 32.95125823 -2 38 C-5.50892958 39.39143332 -8.35922429 38.74470412 -12 38 C-11.67 37.34 -11.34 36.68 -11 36 C-9.865625 35.855625 -8.73125 35.71125 -7.5625 35.5625 C-6.386875 35.376875 -5.21125 35.19125 -4 35 C-0.83705596 30.25558394 -0.87728601 25.31596777 -0.68359375 19.7265625 C-0.64169922 18.57285156 -0.59980469 17.41914063 -0.55664062 16.23046875 C-0.51732422 15.04066406 -0.47800781 13.85085938 -0.4375 12.625 C-0.39431641 11.41199219 -0.35113281 10.19898438 -0.30664062 8.94921875 C-0.20094487 5.96624968 -0.09884679 2.98320258 0 0 Z " fill="#773A77" transform="translate(222,243)"/>
<path d="M0 0 C0.99 0.33 1.98 0.66 3 1 C2.34704886 4.52593616 1.3087867 7.22945596 -1 10 C-4.6875 10.3125 -4.6875 10.3125 -8 10 C-7.67 8.68 -7.34 7.36 -7 6 C-6.34 6 -5.68 6 -5 6 C-4.67 4.35 -4.34 2.7 -4 1 C-2.68 1.33 -1.36 1.66 0 2 C0 1.34 0 0.68 0 0 Z " fill="#8C3492" transform="translate(282,277)"/>
<path d="M0 0 C0.78552246 0.01047363 1.57104492 0.02094727 2.38037109 0.03173828 C3.23115234 0.03818359 4.08193359 0.04462891 4.95849609 0.05126953 C6.29267578 0.07640625 6.29267578 0.07640625 7.65380859 0.10205078 C8.99958984 0.11558594 8.99958984 0.11558594 10.37255859 0.12939453 C12.59142182 0.15299946 14.8101483 0.18887116 17.02880859 0.22705078 C17.02880859 3.19705078 17.02880859 6.16705078 17.02880859 9.22705078 C15.70880859 9.22705078 14.38880859 9.22705078 13.02880859 9.22705078 C13.68880859 8.89705078 14.34880859 8.56705078 15.02880859 8.22705078 C14.69880859 6.24705078 14.36880859 4.26705078 14.02880859 2.22705078 C8.08880859 2.22705078 2.14880859 2.22705078 -3.97119141 2.22705078 C-1.97119141 0.22705078 -1.97119141 0.22705078 0 0 Z " fill="#7A3E7B" transform="translate(331.97119140625,278.77294921875)"/>
<path d="M0 0 C-0.125 3.25 -0.125 3.25 -1 7 C-4.0625 9.4375 -4.0625 9.4375 -7 11 C-8.19164995 8.476506 -9.0358641 6.62762177 -8.875 3.8125 C-8 2 -8 2 -6.1875 0.75 C-4 0 -4 0 0 0 Z " fill="#8A3690" transform="translate(187,245)"/>
<path d="M0 0 C0.33 0 0.66 0 1 0 C1.144375 0.94875 1.28875 1.8975 1.4375 2.875 C1.82935399 5.8934494 1.82935399 5.8934494 3 8 C5.31 8 7.62 8 10 8 C10.103125 7.38125 10.20625 6.7625 10.3125 6.125 C11 4 11 4 14 2 C13.34 4.31 12.68 6.62 12 9 C7.37540756 10.17700048 2.92133538 10.11408412 -1.8125 10.0625 C-2.60076172 10.05798828 -3.38902344 10.05347656 -4.20117188 10.04882812 C-6.13414761 10.03711312 -8.06708393 10.01917998 -10 10 C-10 9.67 -10 9.34 -10 9 C-6.7 9 -3.4 9 0 9 C0 6.03 0 3.06 0 0 Z " fill="#784379" transform="translate(271,279)"/>
<path d="M0 0 C1.32 0.66 2.64 1.32 4 2 C3.39363767 7.76044212 1.24341721 12.72014369 -1 18 C-1.66 17.67 -2.32 17.34 -3 17 C-2.731875 16.360625 -2.46375 15.72125 -2.1875 15.0625 C-0.64635858 11.08797739 0.67609312 7.05115505 2 3 C1.34 3 0.68 3 0 3 C-0.66 5.31 -1.32 7.62 -2 10 C-2.66 10 -3.32 10 -4 10 C-3.43454163 6.04179141 -2.19097652 3.3340947 0 0 Z " fill="#26A57C" transform="translate(260,164)"/>
<path d="M0 0 C2.50993714 2.50993714 2.51959955 4.03273663 3.0625 7.5 C3.6285743 11.37920565 3.6285743 11.37920565 5 15 C4.34249689 16.33787589 3.6743074 17.67051448 3 19 C2.55188863 21.35564596 2.55188863 21.35564596 2.375 23.75 C2.30023438 24.54921875 2.22546875 25.3484375 2.1484375 26.171875 C2.09945312 26.77515625 2.05046875 27.3784375 2 28 C1.67 28 1.34 28 1 28 C0.67 18.76 0.34 9.52 0 0 Z " fill="#753578" transform="translate(192,250)"/>
<path d="M0 0 C2 2 2 2 2 5 C7.61 5 13.22 5 19 5 C19.33 5.66 19.66 6.32 20 7 C15.89584811 7.02898097 11.79172247 7.0467922 7.6875 7.0625 C6.52025391 7.07087891 5.35300781 7.07925781 4.15039062 7.08789062 C2.47299805 7.09272461 2.47299805 7.09272461 0.76171875 7.09765625 C-0.7857605 7.10551147 -0.7857605 7.10551147 -2.36450195 7.11352539 C-5 7 -5 7 -8 6 C-7.67 5.01 -7.34 4.02 -7 3 C-7 3.66 -7 4.32 -7 5 C-3.535 4.505 -3.535 4.505 0 4 C0 2.68 0 1.36 0 0 Z " fill="#774378" transform="translate(315,282)"/>
<path d="M0 0 C0.99 0.33 1.98 0.66 3 1 C1.66666667 4.33333333 0.33333333 7.66666667 -1 11 C-1.226875 10.360625 -1.45375 9.72125 -1.6875 9.0625 C-2.80953903 6.79776206 -2.80953903 6.79776206 -5.15625 6.375 C-8.40710047 5.94631642 -11.53413883 5.90438524 -14.8125 5.9375 C-15.97394531 5.94652344 -17.13539063 5.95554687 -18.33203125 5.96484375 C-19.21246094 5.97644531 -20.09289062 5.98804688 -21 6 C-21 5.01 -21 4.02 -21 3 C-17.87463363 3.13857841 -14.74981783 3.28709569 -11.625 3.4375 C-10.73554688 3.47681641 -9.84609375 3.51613281 -8.9296875 3.55664062 C-7.65351563 3.61948242 -7.65351563 3.61948242 -6.3515625 3.68359375 C-5.56604004 3.72025146 -4.78051758 3.75690918 -3.97119141 3.79467773 C-2 4 -2 4 0 5 C0 3.35 0 1.7 0 0 Z " fill="#7B377D" transform="translate(307,272)"/>
<path d="M0 0 C2.31 0 4.62 0 7 0 C8.80230168 3.82989106 9.19622241 6.78121808 9 11 C7.35 11.33 5.7 11.66 4 12 C4.185625 11.071875 4.37125 10.14375 4.5625 9.1875 C5.24123881 5.98656229 5.24123881 5.98656229 4 3 C4.33 2.34 4.66 1.68 5 1 C3.68 1 2.36 1 1 1 C0.67 1.66 0.34 2.32 0 3 C0 2.01 0 1.02 0 0 Z " fill="#833685" transform="translate(223,244)"/>
<path d="M0 0 C1.65 0 3.3 0 5 0 C4.67 1.98 4.34 3.96 4 6 C3.34 5.67 2.68 5.34 2 5 C1.67 10.61 1.34 16.22 1 22 C0.67 22 0.34 22 0 22 C0 16.72 0 11.44 0 6 C-0.66 6 -1.32 6 -2 6 C-1.34 4.02 -0.68 2.04 0 0 Z " fill="#773A79" transform="translate(164,266)"/>
<path d="M0 0 C1.67542976 0.28604898 3.34385343 0.61781233 5 1 C3.68 1.33 2.36 1.66 1 2 C1.721875 2.721875 2.44375 3.44375 3.1875 4.1875 C5.79166667 6.79166667 8.39583333 9.39583333 11 12 C6.41466236 11.04988499 2.56101513 9.04504857 -1 6 C-1.5625 3.25 -1.5625 3.25 -1 1 C-0.67 0.67 -0.34 0.34 0 0 Z " fill="#229977" transform="translate(263,175)"/>
<path d="M0 0 C0.66 0.33 1.32 0.66 2 1 C-0.50774529 3.57939515 -2.96967077 5.9764106 -5.8125 8.1875 C-6.534375 8.785625 -7.25625 9.38375 -8 10 C-8 10.66 -8 11.32 -8 12 C-7.34 12.33 -6.68 12.66 -6 13 C-6.33 13.99 -6.66 14.98 -7 16 C-8.5625 14.875 -8.5625 14.875 -10 13 C-10.25 10.25 -10.25 10.25 -9 7 C-6.19352154 4.37781187 -3.16882423 2.16376281 0 0 Z " fill="#24A67A" transform="translate(227,185)"/>
<path d="M0 0 C0.33 0 0.66 0 1 0 C0.83432041 8.28397934 -3.16729573 14.87497274 -7 22 C-8 20 -8 20 -7.37915039 17.93701172 C-7.03875732 17.10959473 -6.69836426 16.28217773 -6.34765625 15.4296875 C-5.80141602 14.08583984 -5.80141602 14.08583984 -5.24414062 12.71484375 C-4.65922852 11.30912109 -4.65922852 11.30912109 -4.0625 9.875 C-3.67642578 8.93011719 -3.29035156 7.98523438 -2.89257812 7.01171875 C-1.93524154 4.67156265 -0.97080009 2.33459572 0 0 Z " fill="#1F9E78" transform="translate(255,174)"/>
<path d="M0 0 C0.33 0 0.66 0 1 0 C1.75 2.625 1.75 2.625 2 6 C0.25 8.9375 0.25 8.9375 -2 12 C-3.11482941 14.29933565 -4.05002171 16.62505427 -5 19 C-6.4216868 14.73493961 -4.65386682 11.79962257 -3.0625 7.8125 C-2.77181641 7.06291016 -2.48113281 6.31332031 -2.18164062 5.54101562 C-1.46274964 3.69075523 -0.73245347 1.84493352 0 0 Z " fill="#7F3E81" transform="translate(288,245)"/>
<path d="M0 0 C1.65 0.33 3.3 0.66 5 1 C4.9375 3.1875 4.9375 3.1875 4 6 C1.8282781 7.93157957 -0.52601047 9.48201687 -3 11 C-3.66 10.67 -4.32 10.34 -5 10 C-4.55527344 9.61328125 -4.11054688 9.2265625 -3.65234375 8.828125 C-3.08644531 8.30734375 -2.52054687 7.7865625 -1.9375 7.25 C-1.36902344 6.73953125 -0.80054688 6.2290625 -0.21484375 5.703125 C1.26498257 4.04312742 1.26498257 4.04312742 0.68359375 1.796875 C0.45800781 1.20390625 0.23242188 0.6109375 0 0 Z " fill="#24A879" transform="translate(286,193)"/>
<path d="M0 0 C1.38857478 3.7323475 0.57927184 5.97590209 -0.8125 9.625 C-1.34810547 11.06746094 -1.34810547 11.06746094 -1.89453125 12.5390625 C-3 15 -3 15 -5 17 C-5.27771418 12.32051602 -4.54837397 9.32416664 -2.5 5.125 C-2.0359375 4.15820312 -1.571875 3.19140625 -1.09375 2.1953125 C-0.7328125 1.47085938 -0.371875 0.74640625 0 0 Z " fill="#19E085" transform="translate(254,182)"/>
<path d="M0 0 C0.66 0.33 1.32 0.66 2 1 C-0.875 5.875 -0.875 5.875 -2 7 C-3.66617115 7.04063832 -5.33388095 7.042721 -7 7 C-6.34 5.68 -5.68 4.36 -5 3 C-4.34 3 -3.68 3 -3 3 C-3 2.34 -3 1.68 -3 1 C-2.01 0.67 -1.02 0.34 0 0 Z " fill="#21CC86" transform="translate(271,208)"/>
<path d="M0 0 C0.33 0 0.66 0 1 0 C1.20060099 3.85292255 0.62958504 6.61739433 -0.8125 10.1875 C-1.31716797 11.47720703 -1.31716797 11.47720703 -1.83203125 12.79296875 C-3 15 -3 15 -6 17 C-4.33846988 11.14340094 -2.52958084 5.5409866 0 0 Z " fill="#22A275" transform="translate(245,200)"/>
<path d="M0 0 C2.51083114 1.25541557 2.87125446 2.50063488 4 5 C4.66 4.34 5.32 3.68 6 3 C6 6 6 6 4.625 7.6875 C3 9 3 9 1 9 C1 7.35 1 5.7 1 4 C0.01 4 -0.98 4 -2 4 C-1.34 2.68 -0.68 1.36 0 0 Z " fill="#813684" transform="translate(177,250)"/>
<path d="M0 0 C0.66 0.33 1.32 0.66 2 1 C0.02 3.31 -1.96 5.62 -4 8 C-2.68 8.33 -1.36 8.66 0 9 C-3.75 10.125 -3.75 10.125 -6 9 C-5.69381595 5.32579134 -5.24228216 4.21864487 -2.4375 1.6875 C-1.633125 1.130625 -0.82875 0.57375 0 0 Z " fill="#299176" transform="translate(268,207)"/>
<path d="M0 0 C0.33 0.99 0.66 1.98 1 3 C0.01 4.485 0.01 4.485 -1 6 C-0.34 6 0.32 6 1 6 C0.67 7.32 0.34 8.64 0 10 C-0.99 10 -1.98 10 -3 10 C-2.88637738 8.5199159 -2.75877092 7.04089926 -2.625 5.5625 C-2.55539063 4.73878906 -2.48578125 3.91507813 -2.4140625 3.06640625 C-2.27742187 2.38449219 -2.14078125 1.70257813 -2 1 C-1.34 0.67 -0.68 0.34 0 0 Z " fill="#1FBC83" transform="translate(240,216)"/>
<path d="M0 0 C0.99 0.33 1.98 0.66 3 1 C1.61019248 2.13243576 0.21285323 3.25563119 -1.1875 4.375 C-1.96480469 5.00148437 -2.74210938 5.62796875 -3.54296875 6.2734375 C-5.96879382 7.97807134 -8.21309045 9.01987906 -11 10 C-7.5103248 6.40768729 -4.03355127 2.98132051 0 0 Z " fill="#1EA070" transform="translate(230,178)"/>
<path d="M0 0 C0 1.65 0 3.3 0 5 C-2.31 5 -4.62 5 -7 5 C-6.25 3.0625 -6.25 3.0625 -5 1 C-3.24759171 0.36276062 -1.86049542 0 0 0 Z " fill="#8E3194" transform="translate(228,277)"/>
<path d="M0 0 C2.475 0.99 2.475 0.99 5 2 C4.01 3.485 4.01 3.485 3 5 C0.1796875 5.29296875 0.1796875 5.29296875 -3.125 5.1875 C-4.76855469 5.14689453 -4.76855469 5.14689453 -6.4453125 5.10546875 C-7.70988281 5.05326172 -7.70988281 5.05326172 -9 5 C-9 4.67 -9 4.34 -9 4 C-5.7 4 -2.4 4 1 4 C0.67 2.68 0.34 1.36 0 0 Z " fill="#76377A" transform="translate(299,265)"/>
<path d="M0 0 C2 3.75 2 3.75 2 6 C4.475 6.99 4.475 6.99 7 8 C5.25 8.75 5.25 8.75 3 9 C0.75 7.0625 0.75 7.0625 -1 5 C-0.67 4.34 -0.34 3.68 0 3 C-0.66 3 -1.32 3 -2 3 C-2 2.34 -2 1.68 -2 1 C-1.34 0.67 -0.68 0.34 0 0 Z " fill="#11D87C" transform="translate(216,194)"/>
<path d="M0 0 C0.66 0 1.32 0 2 0 C1.34 2.97 0.68 5.94 0 9 C-0.99 9 -1.98 9 -3 9 C-1.125 2.25 -1.125 2.25 0 0 Z " fill="#17DD80" transform="translate(260,167)"/>
<path d="M0 0 C0 2.31 0 4.62 0 7 C-0.99 7 -1.98 7 -3 7 C-4 4 -4 4 -3 1 C-1 0 -1 0 0 0 Z " fill="#18CB8E" transform="translate(249,195)"/>
<path d="M0 0 C0.66 0.33 1.32 0.66 2 1 C0.625 2.5 0.625 2.5 -1 4 C-1.66 4 -2.32 4 -3 4 C-3.33 4.99 -3.66 5.98 -4 7 C-4.66 7 -5.32 7 -6 7 C-6.33 7.99 -6.66 8.98 -7 10 C-6.84518205 7.29068581 -6.51827919 5.53415961 -4.59765625 3.5546875 C-3.10228292 2.32320358 -1.5537076 1.1570163 0 0 Z " fill="#2CA376" transform="translate(217,188)"/>
<path d="M0 0 C3.35595828 0.59927826 5.37801226 1.84622436 8 4 C7.67 4.99 7.34 5.98 7 7 C5.83040013 6.02433888 4.66438823 5.044375 3.5 4.0625 C2.8503125 3.51722656 2.200625 2.97195312 1.53125 2.41015625 C1.0259375 1.94480469 0.520625 1.47945312 0 1 C0 0.67 0 0.34 0 0 Z " fill="#16A672" transform="translate(266,177)"/>
<path d="M0 0 C0.99 0.33 1.98 0.66 3 1 C3 1.66 3 2.32 3 3 C2.01 3.33 1.02 3.66 0 4 C-1.66710346 5.49985609 -1.66710346 5.49985609 -3 7 C-2.25 2.25 -2.25 2.25 0 0 Z " fill="#8D3393" transform="translate(309,276)"/>
<path d="M0 0 C0.763125 0.61875 1.52625 1.2375 2.3125 1.875 C4.99625809 4.05597052 4.99625809 4.05597052 8 6 C1.375 5.25 1.375 5.25 -2 3 C-1.34 3 -0.68 3 0 3 C0 2.01 0 1.02 0 0 Z " fill="#7B337E" transform="translate(202,274)"/>
<path d="M0 0 C0.66 0 1.32 0 2 0 C2 0.66 2 1.32 2 2 C2.99 2 3.98 2 5 2 C4.67 4.31 4.34 6.62 4 9 C3.67 9 3.34 9 3 9 C2.87625 8.195625 2.7525 7.39125 2.625 6.5625 C2.315625 5.2940625 2.315625 5.2940625 2 4 C1.34 3.67 0.68 3.34 0 3 C0 2.01 0 1.02 0 0 Z " fill="#79377D" transform="translate(226,272)"/>
<path d="M0 0 C2.1875 0.3125 2.1875 0.3125 4 1 C4 2.65 4 4.3 4 6 C3.34 6 2.68 6 2 6 C2 4.68 2 3.36 2 2 C0.35 2.33 -1.3 2.66 -3 3 C-1.75 1.4375 -1.75 1.4375 0 0 Z " fill="#2B8974" transform="translate(234,175)"/>
<path d="M0 0 C0.66 0.33 1.32 0.66 2 1 C0.35 2.65 -1.3 4.3 -3 6 C-3.99 5.67 -4.98 5.34 -6 5 C-4.02 3.35 -2.04 1.7 0 0 Z " fill="#14A770" transform="translate(227,185)"/>
<path d="M0 0 C0.66 0.33 1.32 0.66 2 1 C0.68 4.3 -0.64 7.6 -2 11 C-2.66 10.67 -3.32 10.34 -4 10 C-2.66666667 6.66666667 -1.33333333 3.33333333 0 0 Z " fill="#209972" transform="translate(261,171)"/>
<path d="M0 0 C1.32 0 2.64 0 4 0 C3.67 1.65 3.34 3.3 3 5 C1.68 5 0.36 5 -1 5 C-0.01 4.67 0.98 4.34 2 4 C1.34 2.68 0.68 1.36 0 0 Z " fill="#30937F" transform="translate(234,211)"/>
</svg>
